<svg xmlns="http://www.w3.org/2000/svg" width="53.282" height="53.282" viewBox="0 0 53.282 53.282">
  <path id="パス_17707" data-name="パス 17707" d="M263.573,396.546c-1.463,5.933-5.105,10.186-7.261,10.186-2.742,0-7.906-6.869-7.906-15.342s5.164-15.342,7.906-15.342c2.2,0,5.957,4.431,7.355,10.561h7.751a27.164,27.164,0,0,0-53.282,0h7.691c1.4-6.129,5.153-10.561,7.355-10.561,2.742,0,7.906,6.87,7.906,15.342s-5.164,15.342-7.906,15.342c-2.156,0-5.8-4.254-7.261-10.186H218.2a27.175,27.175,0,0,0,53.146,0Z" transform="translate(-218.135 -364.75)" fill="#df0515"/>
</svg>
